<?xml version="1.0" standalone="no"?>
<!DOCTYPE svg PUBLIC "-//W3C//DTD SVG 20010904//EN"
 "http://www.w3.org/TR/2001/REC-SVG-20010904/DTD/svg10.dtd">
<svg version="1.0" xmlns="http://www.w3.org/2000/svg"
 width="866.000000pt" height="866.000000pt" viewBox="0 0 866.000000 866.000000"
 preserveAspectRatio="xMidYMid meet">
<metadata>
Created by potrace 1.11, written by Peter Selinger 2001-2013
</metadata>
<g transform="translate(0.000000,866.000000) scale(0.100000,-0.100000)"
fill="#000000" stroke="none">
<path d="M4018 7973 c-20 -2 -42 -11 -48 -19 -8 -9 -32 -14 -69 -14 -31 -1
-76 -5 -101 -11 -25 -6 -66 -14 -92 -18 -26 -4 -56 -15 -66 -24 -10 -9 -29
-17 -43 -17 -13 -1 -42 -9 -64 -20 -22 -11 -49 -19 -60 -20 -11 0 -28 -9 -38
-20 -9 -11 -27 -20 -39 -20 -13 0 -50 -14 -83 -30 -33 -16 -66 -30 -72 -30 -7
0 -18 -9 -25 -20 -7 -11 -20 -20 -29 -20 -9 0 -22 -7 -29 -15 -7 -8 -19 -15
-27 -15 -8 0 -28 -13 -44 -30 -17 -16 -52 -42 -79 -57 -28 -15 -50 -34 -50
-41 0 -7 -10 -16 -23 -21 -13 -5 -39 -30 -58 -55 -19 -25 -39 -46 -46 -46 -7
0 -20 -12 -30 -26 -10 -14 -31 -38 -46 -52 -15 -14 -35 -41 -44 -59 -8 -18
-20 -33 -27 -33 -11 0 -25 -21 -46 -72 -7 -16 -16 -28 -21 -28 -5 0 -9 -7 -9
-15 0 -8 -9 -20 -20 -27 -11 -7 -20 -16 -20 -21 0 -17 -43 -102 -55 -110 -8
-4 -16 -21 -20 -37 -4 -16 -11 -32 -16 -35 -5 -4 -9 -15 -9 -26 0 -10 -9 -36
-20 -56 -11 -21 -20 -48 -20 -60 0 -12 -9 -27 -20 -33 -14 -7 -20 -21 -20 -44
0 -19 -7 -50 -15 -69 -8 -20 -15 -49 -15 -63 0 -15 -7 -35 -16 -45 -9 -10 -18
-37 -21 -61 -2 -24 -11 -60 -19 -81 -8 -20 -14 -59 -14 -85 0 -26 -7 -78 -15
-117 -9 -42 -15 -123 -15 -202 0 -104 -3 -135 -15 -147 -22 -21 -21 -372 0
-400 12 -15 15 -53 15 -165 0 -91 6 -172 15 -216 8 -39 15 -93 15 -122 0 -29
6 -72 14 -95 8 -24 17 -72 20 -107 3 -36 13 -72 21 -81 8 -9 15 -30 15 -47 0
-17 7 -50 15 -73 8 -23 15 -60 15 -81 0 -27 6 -45 20 -56 11 -10 20 -29 20
-42 0 -25 34 -142 51 -173 5 -9 11 -35 15 -57 3 -22 12 -42 19 -45 7 -2 16
-20 20 -38 6 -31 27 -83 47 -118 4 -8 13 -26 19 -40 6 -14 15 -32 20 -40 5 -8
12 -22 15 -30 3 -8 12 -29 20 -47 8 -17 14 -36 14 -42 0 -6 9 -15 20 -21 11
-6 20 -20 20 -31 0 -12 9 -32 20 -46 11 -14 20 -31 20 -38 0 -7 6 -15 14 -18
7 -3 24 -27 37 -54 12 -26 29 -52 36 -56 7 -4 13 -12 13 -17 0 -6 16 -30 35
-56 19 -25 35 -52 35 -60 0 -8 6 -14 13 -14 12 0 47 -34 47 -45 0 -3 22 -26
48 -53 27 -26 51 -55 55 -64 3 -10 12 -18 19 -18 7 0 44 -29 82 -64 46 -43 99
-79 162 -111 52 -26 96 -51 99 -56 4 -5 16 -9 28 -9 12 0 31 -7 41 -15 12 -9
42 -15 72 -15 40 0 55 -4 63 -17 9 -16 36 -18 273 -23 145 -3 269 -9 276 -13
8 -6 12 -41 12 -117 l0 -109 -37 -6 c-129 -19 -233 -39 -268 -51 -23 -8 -50
-14 -61 -14 -11 0 -28 -6 -39 -13 -11 -8 -54 -24 -95 -37 -41 -13 -86 -32 -99
-42 -13 -10 -29 -18 -35 -18 -17 0 -93 -38 -100 -49 -4 -5 -20 -12 -36 -16
-17 -4 -30 -12 -30 -19 0 -6 -16 -20 -36 -31 -40 -21 -164 -138 -164 -154 0
-5 -6 -14 -14 -18 -17 -10 -64 -77 -77 -110 -5 -13 -13 -23 -18 -23 -5 0 -12
-13 -16 -30 -4 -16 -11 -32 -16 -35 -5 -4 -9 -18 -9 -33 0 -15 -6 -57 -14 -94
-10 -48 -12 -84 -5 -130 5 -35 12 -83 15 -108 4 -25 10 -50 15 -55 4 -6 11
-29 15 -51 5 -37 3 -42 -29 -67 -20 -15 -40 -27 -45 -27 -5 0 -25 -15 -45 -32
-20 -18 -42 -38 -49 -44 -7 -6 -29 -29 -49 -50 -21 -22 -49 -50 -63 -64 -14
-13 -26 -28 -26 -33 0 -4 -11 -18 -25 -30 -37 -33 -68 -81 -125 -192 -63 -121
-90 -210 -90 -290 l0 -61 313 -2 312 -3 23 34 c12 18 22 39 22 45 0 7 29 42
65 80 36 37 65 70 65 75 0 4 5 7 10 7 6 0 25 16 44 36 28 29 39 35 59 30 16
-4 27 -15 31 -32 4 -14 18 -37 31 -50 13 -13 36 -45 51 -70 15 -25 32 -48 38
-50 7 -3 20 -27 31 -54 18 -46 22 -50 52 -50 40 0 48 12 23 35 -11 10 -20 26
-20 35 0 9 -9 27 -20 40 -11 13 -20 29 -20 37 0 16 -29 64 -48 78 -7 6 -18 20
-25 32 -7 13 -43 68 -82 123 -38 56 -76 112 -83 126 -7 13 -17 24 -21 24 -5 0
-12 11 -15 25 -4 14 -10 25 -15 25 -5 0 -30 36 -56 80 -26 44 -51 80 -56 80
-5 0 -9 6 -9 13 -1 6 -9 30 -20 52 -11 22 -19 46 -20 53 0 7 -7 15 -15 18 -8
3 -17 22 -21 42 -4 21 -13 49 -20 64 -27 53 -11 138 26 138 11 0 23 7 26 15 3
8 21 17 40 21 19 3 34 12 34 20 0 8 8 14 19 14 10 0 34 6 52 14 19 7 61 14 94
15 33 2 67 7 77 12 10 5 48 12 86 16 37 3 77 11 89 19 11 7 52 16 90 19 37 4
91 13 118 20 28 7 111 16 185 19 80 4 140 12 149 19 21 18 817 17 848 0 12 -7
68 -16 125 -19 56 -3 122 -12 146 -20 23 -8 59 -14 80 -14 21 0 54 -9 75 -20
20 -11 43 -20 51 -20 7 0 38 -7 67 -16 144 -43 169 -69 169 -174 -1 -37 -7
-76 -15 -90 -8 -14 -14 -37 -15 -51 0 -14 -9 -34 -20 -44 -11 -10 -20 -24 -20
-31 0 -6 -13 -39 -29 -71 -16 -33 -33 -71 -36 -86 -4 -15 -11 -27 -15 -27 -9
0 -43 -68 -55 -107 -3 -13 -10 -23 -15 -23 -5 0 -23 -28 -40 -63 -38 -76 -53
-102 -71 -124 -23 -29 -49 -80 -49 -97 0 -8 -6 -19 -13 -23 -15 -9 -113 -200
-106 -206 2 -3 105 -7 229 -10 l225 -7 11 23 c34 67 46 87 54 87 5 0 19 23 31
50 12 28 30 55 40 61 11 5 19 19 19 29 0 11 5 20 10 20 6 0 21 21 33 47 33 71
69 105 101 97 14 -3 29 -10 32 -16 3 -5 16 -13 27 -19 33 -14 56 -31 93 -67
18 -17 38 -32 44 -32 6 0 14 -8 17 -17 4 -10 20 -31 35 -48 59 -63 82 -105 93
-167 4 -28 12 -39 28 -43 12 -3 164 -4 337 -3 l315 3 -2 35 c-9 140 -39 263
-82 343 -15 29 -31 64 -35 79 -3 16 -13 28 -21 28 -8 0 -15 7 -15 16 0 23 -73
144 -88 144 -7 0 -17 11 -22 24 -5 14 -41 56 -79 93 -105 103 -131 124 -162
135 -16 5 -29 15 -29 22 0 7 -19 20 -42 31 -92 39 -148 66 -148 69 0 2 7 43
16 92 27 152 19 306 -22 384 -7 14 -24 50 -38 80 -14 31 -39 71 -56 90 -16 18
-30 36 -30 39 0 3 -14 15 -30 26 -16 11 -30 25 -30 30 -1 12 -93 85 -108 85
-5 0 -17 9 -27 20 -10 11 -23 20 -29 20 -12 0 -79 32 -99 48 -16 12 -101 41
-155 52 -23 5 -51 14 -61 20 -11 5 -37 10 -58 10 -21 1 -56 9 -78 20 -22 11
-62 20 -90 20 -27 0 -97 7 -155 15 -58 8 -148 15 -201 15 -113 0 -128 8 -135
70 -3 25 -14 109 -26 188 l-21 143 32 30 c18 16 36 29 40 29 4 0 18 9 31 20
13 11 29 20 37 20 7 0 13 6 13 14 0 8 6 16 14 19 28 11 105 73 111 89 3 9 15
20 25 23 11 3 54 51 97 105 43 55 84 100 91 100 6 0 12 8 12 19 0 10 7 24 15
31 8 7 15 19 15 26 0 8 6 14 13 14 7 0 25 27 40 60 15 32 32 62 37 65 6 3 10
17 10 30 0 13 7 28 16 33 16 9 33 47 56 122 5 19 15 41 21 48 17 21 47 112 57
172 5 30 16 97 25 148 8 52 20 102 25 112 25 47 19 759 -6 791 -7 9 -14 135
-19 344 -4 182 -10 350 -12 375 -3 25 -9 110 -13 190 -4 80 -10 159 -14 175
-3 17 -12 75 -20 131 -7 55 -18 109 -24 120 -5 10 -13 46 -17 79 -4 33 -14 77
-21 99 -8 21 -14 53 -14 71 0 19 -8 39 -20 50 -14 13 -20 31 -20 64 0 25 -7
55 -15 65 -8 11 -15 29 -15 41 0 12 -7 30 -15 41 -8 10 -15 31 -15 47 0 15 -9
35 -20 44 -11 10 -20 27 -20 38 0 11 -7 29 -15 39 -8 11 -15 28 -15 38 0 10
-5 18 -11 18 -5 0 -16 15 -24 34 -8 19 -19 37 -25 41 -5 3 -10 15 -10 26 0 10
-11 29 -25 41 -14 12 -25 28 -25 36 0 8 -13 31 -30 52 -16 21 -30 41 -30 45 0
5 -9 17 -20 29 -75 79 -120 130 -120 137 0 4 -17 18 -37 30 -21 13 -44 31 -51
41 -7 10 -20 18 -28 18 -8 0 -17 7 -20 15 -4 8 -12 15 -19 15 -7 0 -18 7 -25
15 -7 8 -23 15 -36 15 -14 0 -25 8 -29 20 -4 12 -15 20 -28 20 -12 0 -35 9
-52 20 -16 11 -39 20 -49 20 -11 0 -28 7 -37 16 -10 9 -35 20 -56 25 -21 4
-56 12 -78 18 -22 6 -58 11 -79 11 -23 0 -47 7 -58 17 -16 14 -45 17 -186 19
-92 1 -184 0 -204 -3z m223 -124 c19 -7 41 -19 49 -29 8 -9 33 -27 55 -40 22
-13 62 -45 88 -72 27 -26 53 -48 58 -48 5 0 9 -6 9 -13 0 -8 18 -31 41 -52 23
-21 45 -51 51 -66 5 -16 16 -29 24 -29 8 0 19 -10 24 -22 15 -33 77 -130 88
-137 5 -3 19 -26 31 -51 12 -25 37 -71 56 -104 19 -32 35 -66 35 -77 0 -10 8
-23 19 -28 10 -6 21 -23 24 -38 6 -34 25 -89 43 -125 8 -14 14 -35 14 -46 0
-31 11 -52 26 -52 8 0 14 -10 14 -25 0 -14 7 -42 15 -62 8 -19 15 -49 15 -65
0 -16 9 -41 20 -55 11 -14 20 -36 20 -49 0 -12 5 -35 11 -51 13 -30 34 -130
50 -232 6 -35 16 -70 24 -77 7 -8 16 -44 20 -81 3 -38 13 -95 21 -129 8 -33
14 -80 14 -105 0 -24 7 -57 15 -72 8 -16 19 -79 25 -140 5 -62 14 -148 19
-192 37 -297 50 -711 31 -930 -7 -77 -16 -183 -20 -235 -9 -117 -27 -229 -48
-295 -14 -47 -23 -83 -53 -210 -6 -27 -17 -57 -23 -65 -7 -8 -23 -53 -35 -100
-13 -46 -29 -93 -37 -104 -8 -11 -14 -28 -14 -37 0 -9 -8 -27 -19 -40 -10 -13
-27 -48 -37 -77 -11 -30 -27 -58 -36 -63 -10 -5 -18 -15 -18 -21 0 -25 -44
-101 -81 -139 -21 -22 -39 -44 -39 -47 0 -4 -27 -18 -60 -31 -33 -13 -65 -30
-71 -38 -6 -7 -19 -13 -29 -13 -10 0 -23 -6 -29 -14 -6 -8 -31 -17 -56 -20
-24 -4 -48 -13 -55 -20 -6 -8 -27 -17 -48 -21 -20 -3 -50 -10 -67 -15 -16 -5
-86 -18 -155 -31 -69 -12 -143 -30 -166 -41 -22 -10 -55 -18 -73 -18 -18 0
-41 -5 -52 -11 -30 -16 -226 -18 -279 -3 -25 6 -61 15 -81 18 -21 4 -42 13
-49 21 -7 8 -21 15 -32 15 -10 0 -36 9 -56 20 -20 10 -58 29 -84 40 -27 12
-48 25 -48 28 0 4 -17 18 -37 32 -20 14 -52 40 -71 58 -19 17 -41 32 -48 32
-8 0 -14 6 -14 12 0 13 -79 88 -92 88 -5 0 -8 6 -8 14 0 8 -6 21 -13 28 -7 7
-18 20 -23 30 -5 9 -31 40 -59 70 -27 29 -59 71 -71 93 -34 65 -59 105 -66
105 -10 0 -48 75 -48 95 0 9 -7 18 -14 21 -8 3 -29 33 -45 67 -17 34 -42 82
-56 106 -14 24 -25 51 -25 60 0 9 -6 25 -14 36 -7 11 -17 36 -21 55 -4 19 -13
42 -20 50 -7 8 -18 32 -24 52 -7 21 -17 40 -22 43 -5 4 -9 19 -9 36 0 17 -8
36 -20 46 -13 11 -20 30 -20 51 0 19 -6 55 -14 81 -30 97 -45 158 -51 203 -3
25 -13 52 -20 58 -8 7 -15 29 -15 49 0 20 -5 54 -11 76 -6 22 -14 82 -19 133
-4 51 -13 99 -19 106 -7 8 -14 39 -17 68 -37 441 -42 614 -24 803 6 55 14 149
19 209 5 60 14 112 20 115 6 4 15 43 21 86 14 115 33 200 47 217 7 8 15 30 19
49 3 19 11 50 19 69 7 19 21 62 31 95 10 33 26 69 36 81 10 11 18 30 18 41 0
11 7 26 15 33 8 7 15 20 15 29 0 9 8 27 17 41 9 13 34 58 56 99 21 42 45 80
53 84 8 4 14 14 14 21 0 7 9 21 20 31 11 10 20 24 20 32 0 7 7 13 15 13 9 0
19 8 22 18 4 9 35 46 70 82 35 35 63 70 63 77 0 7 7 13 15 13 7 0 18 6 22 13
4 8 22 22 38 33 17 10 44 33 60 51 17 18 38 33 47 33 10 0 22 8 27 18 5 10 48
37 95 61 47 23 86 46 86 51 0 5 12 13 27 16 15 4 38 13 52 20 14 8 31 14 38
14 7 0 16 6 20 13 4 7 42 24 83 36 41 13 92 30 113 38 20 7 53 13 72 13 20 0
37 6 43 15 6 11 34 19 88 25 43 6 99 14 124 19 67 13 232 13 271 0z m1185
-5393 c6 -9 41 -19 90 -25 113 -14 177 -29 189 -45 6 -7 27 -16 48 -20 25 -5
37 -12 37 -24 3 -106 7 -119 48 -161 22 -23 45 -41 51 -41 7 0 16 -10 21 -22
6 -13 14 -30 19 -38 18 -31 33 -118 22 -137 -5 -10 -12 -25 -16 -33 -23 -57
-100 -130 -137 -130 -14 0 -33 9 -43 20 -10 11 -28 20 -39 20 -12 1 -32 7 -46
15 -14 8 -40 14 -59 15 -19 0 -43 8 -54 17 -11 11 -43 20 -80 24 -34 3 -89 11
-122 17 -125 24 -351 36 -645 36 -302 -1 -634 -21 -710 -44 -19 -5 -64 -10
-100 -10 -46 0 -76 -6 -103 -20 -20 -11 -56 -20 -80 -20 -23 0 -58 -5 -77 -11
-19 -6 -65 -14 -102 -19 -39 -4 -74 -14 -83 -24 -9 -9 -27 -16 -40 -16 -14 0
-40 -9 -60 -20 -20 -11 -46 -20 -59 -20 -13 0 -29 -7 -36 -15 -7 -8 -21 -15
-31 -15 -10 0 -22 -7 -26 -15 -5 -8 -23 -18 -41 -21 l-32 -6 0 58 c0 33 7 72
15 88 8 15 15 34 15 41 0 8 11 27 25 43 14 17 25 35 25 41 0 6 5 11 10 11 6 0
10 5 10 11 0 6 12 24 28 39 15 16 40 45 55 64 16 20 33 36 39 36 5 0 21 14 35
30 13 17 31 30 38 30 7 0 34 16 59 35 26 19 52 35 59 35 7 0 21 6 32 14 11 7
36 16 57 20 20 4 38 13 41 20 3 7 18 16 34 19 15 3 60 15 98 27 39 12 97 27
131 33 34 7 68 17 76 24 12 11 187 37 194 30 2 -2 11 -51 20 -110 12 -78 22
-113 38 -132 12 -14 26 -25 31 -25 6 0 25 -14 44 -30 18 -17 41 -30 50 -30 9
0 42 -9 74 -20 72 -25 242 -28 308 -5 72 26 179 104 179 131 0 7 10 23 22 34
21 19 23 32 27 137 l3 116 206 -6 c166 -5 209 -9 218 -21z"/>
<path d="M4300 6503 c-8 -2 -29 -11 -47 -19 -17 -8 -39 -14 -49 -14 -9 0 -29
-13 -43 -28 -14 -15 -39 -36 -54 -45 -15 -10 -32 -28 -37 -40 -4 -12 -22 -37
-39 -55 -21 -22 -31 -43 -31 -64 0 -17 -8 -40 -17 -51 -15 -16 -18 -38 -18
-127 1 -69 5 -113 13 -122 7 -8 15 -36 18 -62 4 -25 10 -46 15 -46 4 0 21 -24
38 -53 47 -83 142 -157 200 -157 13 0 30 -8 37 -17 10 -15 29 -18 109 -18 81
0 98 3 106 18 7 11 22 17 49 17 21 0 41 4 44 9 3 5 22 12 41 15 19 4 39 15 45
25 5 11 22 23 37 29 16 5 36 18 46 28 61 63 87 99 87 120 0 13 9 28 20 34 19
10 20 21 20 165 0 139 -2 156 -19 172 -11 10 -22 30 -26 45 -4 15 -28 50 -54
78 -45 49 -69 67 -119 89 -12 6 -25 18 -28 26 -4 8 -14 15 -23 15 -9 0 -40 9
-69 20 -39 15 -75 20 -145 19 -50 0 -99 -3 -107 -6z"/>
<path d="M2845 6479 c-16 -4 -49 -7 -71 -8 -25 -1 -52 -9 -67 -21 -14 -11 -30
-20 -37 -20 -18 0 -103 -69 -123 -100 -10 -16 -27 -32 -38 -35 -11 -4 -19 -15
-19 -29 0 -13 -8 -38 -17 -57 -26 -49 -25 -299 0 -327 9 -10 17 -28 17 -40 0
-12 11 -32 25 -44 14 -12 25 -29 25 -38 0 -31 117 -123 170 -135 19 -4 39 -14
45 -22 8 -11 38 -15 119 -16 93 -2 109 0 117 16 6 10 22 17 38 17 34 0 123 37
134 56 4 8 13 14 18 14 19 0 139 130 139 150 0 10 5 22 10 25 6 3 10 30 10 60
0 30 5 57 11 61 7 4 8 22 4 48 -3 22 -8 66 -11 96 -7 74 -46 154 -102 212 -26
26 -51 48 -55 48 -5 0 -21 9 -36 19 -15 11 -39 23 -53 26 -15 4 -29 13 -32 20
-4 12 -47 19 -166 29 -14 1 -38 -1 -55 -5z"/>
<path d="M3280 5547 c-25 -12 -46 -25 -48 -29 -11 -23 -54 -58 -72 -58 -13 0
-24 -8 -27 -20 -3 -13 -14 -20 -28 -20 -13 0 -36 -7 -51 -15 -16 -8 -36 -15
-44 -15 -9 0 -24 -6 -35 -14 -11 -7 -33 -16 -50 -20 -16 -4 -38 -16 -48 -27
-10 -10 -25 -19 -33 -19 -27 0 -118 -33 -143 -52 -13 -10 -29 -18 -36 -18 -7
0 -18 -7 -25 -15 -7 -8 -23 -15 -36 -15 -29 0 -48 -39 -39 -81 6 -28 35 -49
35 -25 0 24 30 39 73 38 55 -2 137 -40 137 -63 0 -10 9 -21 20 -24 26 -8 28
-60 3 -69 -10 -4 -31 -14 -46 -22 -17 -9 -39 -13 -53 -10 -31 8 -94 71 -94 95
0 21 -26 36 -36 20 -18 -30 48 -134 91 -145 13 -3 26 -12 29 -20 3 -8 17 -14
30 -14 23 0 25 -3 24 -49 0 -27 8 -63 17 -82 15 -28 17 -49 11 -128 -4 -53
-11 -100 -16 -105 -6 -6 -10 -19 -10 -31 0 -11 -8 -36 -19 -55 -10 -19 -22
-55 -26 -80 -4 -25 -13 -70 -21 -100 -18 -68 -18 -156 -1 -167 6 -4 39 -10 71
-13 l59 -5 13 -50 c7 -27 13 -60 14 -71 0 -12 10 -34 22 -49 l22 -28 570 6
c607 7 902 18 1108 42 70 8 154 15 188 15 54 0 61 2 68 23 11 31 -4 676 -18
805 -14 121 -29 159 -67 168 -15 4 -270 4 -567 1 -428 -5 -543 -9 -551 -19 -8
-10 -56 -13 -205 -13 -107 0 -291 -2 -409 -3 -117 -2 -216 -1 -219 2 -10 10 2
15 68 26 140 25 156 29 185 44 17 9 42 16 56 16 14 0 34 9 44 20 10 11 21 17
26 15 4 -3 27 1 51 9 24 8 60 18 82 22 21 4 47 15 57 25 11 11 30 19 43 19 13
0 37 7 53 15 37 19 120 55 130 56 4 0 19 14 32 31 22 27 24 40 24 117 -1 106
-10 129 -72 190 -55 54 -77 61 -190 61 -58 0 -86 -5 -121 -23z m187 -46 c10
-10 29 -22 43 -26 34 -11 70 -35 70 -48 0 -6 9 -20 20 -32 19 -20 26 -52 22
-107 -2 -22 -12 -33 -52 -53 -27 -14 -62 -25 -77 -25 -16 0 -38 -7 -49 -15
-12 -8 -79 -33 -150 -56 -71 -23 -136 -48 -145 -55 -18 -16 -65 -18 -74 -4 -4
6 -2 17 4 24 20 24 -18 122 -61 162 l-38 34 28 6 c15 4 32 13 38 20 6 8 36 25
68 39 31 14 56 29 56 35 0 5 11 10 25 10 14 0 29 8 35 20 6 11 16 20 23 20 7
0 30 9 52 20 22 11 45 20 52 20 7 0 13 4 13 9 0 9 24 17 62 20 10 0 25 -7 35
-18z m-482 -281 c38 -23 52 -72 40 -139 -5 -33 -11 -40 -36 -45 -16 -3 -29
-12 -29 -20 0 -13 -54 -28 -65 -18 -3 3 -5 24 -5 46 0 52 -42 101 -115 135
-26 13 -27 15 -10 18 11 3 34 10 50 18 68 30 127 32 170 5z m1703 -352 c6 -8
11 -93 14 -199 2 -125 7 -191 15 -200 7 -8 13 -24 13 -34 9 -144 14 -305 11
-322 -4 -25 -45 -33 -55 -10 -3 6 -3 0 0 -15 6 -25 4 -27 -48 -32 -29 -3 -147
-7 -263 -10 -115 -2 -237 -9 -270 -15 -33 -5 -265 -13 -515 -17 -615 -9 -624
-9 -636 -17 -13 -8 -54 45 -54 70 0 15 2 15 15 -3 14 -19 14 -19 47 1 31 19
58 20 578 27 683 10 685 10 800 6 92 -2 267 13 287 25 6 4 12 98 16 225 3 122
12 239 19 265 10 38 10 60 -1 114 -23 123 -24 135 -10 144 19 12 25 11 37 -3z
m-1565 -35 c-7 -2 -19 -2 -25 0 -7 3 -2 5 12 5 14 0 19 -2 13 -5z m-193 -28
c10 -12 10 -15 -1 -15 -15 0 -36 -28 -55 -70 l-11 -25 -11 22 c-6 11 -13 36
-14 53 -3 28 1 33 19 35 13 1 26 5 30 8 11 11 30 8 43 -8z m1612 -17 c-7 -7
-12 -27 -12 -45 0 -19 -7 -48 -16 -64 -8 -17 -19 -52 -24 -77 -21 -109 -31
-146 -45 -162 -8 -9 -15 -27 -16 -41 0 -13 -10 -62 -22 -109 l-22 -85 -193 -9
c-110 -5 -197 -5 -202 0 -11 12 23 167 38 172 7 2 12 13 12 25 0 22 14 68 51
175 11 30 19 65 19 80 0 14 6 33 14 41 7 9 18 30 23 46 10 30 10 30 109 37 54
4 128 12 164 16 101 14 136 14 122 0z m-855 -55 c-7 -58 -61 -200 -81 -214 -9
-7 -41 -92 -56 -147 -4 -18 -13 -39 -19 -46 -6 -7 -15 -46 -20 -85 -5 -40 -11
-74 -13 -76 -2 -1 -77 -4 -168 -6 l-165 -4 3 55 c2 30 8 60 14 67 9 11 19 51
48 182 6 24 16 49 24 55 8 6 17 29 21 51 4 22 11 45 16 51 5 6 10 25 12 43 2
18 9 36 14 39 6 4 13 18 14 32 4 25 5 25 134 30 72 3 152 7 179 8 l48 2 -5
-37z m-387 12 c14 -17 5 -51 -15 -59 -9 -3 -15 -18 -15 -36 0 -19 -5 -30 -14
-30 -8 0 -18 -14 -21 -32 -4 -18 -14 -42 -21 -53 -8 -11 -14 -29 -14 -41 0
-12 -7 -27 -15 -34 -8 -7 -18 -28 -21 -49 -4 -20 -13 -49 -20 -66 -6 -16 -15
-65 -19 -107 l-7 -78 -164 0 c-163 0 -164 0 -165 23 -5 73 19 183 46 217 7 8
16 29 19 45 4 17 21 58 37 93 16 35 29 71 29 79 0 9 7 24 16 34 9 10 19 39 21
64 l6 45 162 0 c130 0 165 -3 175 -15z m1272 -223 c4 -53 10 -148 14 -209 l7
-113 -62 0 -61 0 0 61 c0 33 6 81 14 107 8 26 19 72 25 102 7 30 14 64 16 75
2 11 7 37 10 59 11 66 29 25 37 -82z"/>
<path d="M3480 5384 c0 -33 2 -35 27 -32 33 4 41 29 18 52 -28 27 -45 20 -45
-20z"/>
<path d="M4469 1696 c-7 -14 -9 -40 -5 -60 6 -32 10 -36 36 -36 30 0 30 1 30
54 0 40 -4 55 -16 60 -26 10 -34 7 -45 -18z"/>
<path d="M4974 1693 c-31 -33 -30 -42 6 -77 l29 -28 25 25 c28 29 33 55 14 79
-24 29 -48 29 -74 1z"/>
<path d="M4044 1666 c-3 -8 -4 -27 -2 -43 2 -24 8 -28 36 -31 32 -3 32 -3 32
42 0 45 -1 46 -30 46 -17 0 -33 -6 -36 -14z"/>
<path d="M3631 1606 c-7 -8 -11 -30 -9 -48 3 -29 7 -33 36 -36 31 -3 32 -2 32
35 0 56 -32 82 -59 49z"/>
<path d="M5410 1579 c-17 -31 -3 -78 25 -85 36 -9 45 2 45 57 0 48 -1 49 -30
49 -19 0 -33 -7 -40 -21z"/>
<path d="M3274 1446 c-8 -32 12 -58 40 -54 17 2 21 10 21 38 0 31 -3 35 -27
38 -22 3 -29 -2 -34 -22z"/>
</g>
</svg>
